# xmcd
# 
# Track frame offsets:
#     182
#     19162
#     36875
#     55367
#     73162
#     88802
#     109282
#     126715
#     143657
#     165790
#     181672
# 
# Disc length: 2677
# 
# Revision: 0
# Processed by: cddbd v1.5.2PL0 Copyright (c) Steve Scherf et al.
# Submitted via: fre:ac v1.0.17
# 
DISCID=990a730b
DTITLE=Mr. Big - Bump Ahead
DYEAR=1993
DGENRE=Rock
TTITLE0=Colorado Bulldog
TTITLE1=Price You Gotta Pay
TTITLE2=Promise Her The Moon
TTITLE3=What's It Gonna Be
TTITLE4=Wild World
TTITLE5=Mr. Gone
TTITLE6=The Whole World's Gonna Know
TTITLE7=Nothing But Love
TTITLE8=Temperamental
TTITLE9=Ain't Seen Love Like That
TTITLE10=Mr. Big
EXTD=
EXTT0=
EXTT1=
EXTT2=
EXTT3=
EXTT4=
EXTT5=
EXTT6=
EXTT7=
EXTT8=
EXTT9=
EXTT10=
PLAYORDER=
